<?xml version="1.0"?>
<svg xmlns="http://www.w3.org/2000/svg" xmlns:xlink="http://www.w3.org/1999/xlink" xmlns:svgjs="http://svgjs.com/svgjs" version="1.1" width="512" height="512" x="0" y="0" viewBox="0 0 128 128" style="enable-background:new 0 0 512 512" xml:space="preserve" class=""><g><g xmlns="http://www.w3.org/2000/svg"><g><path d="m104.188 15.192h6v102.429h-6z" fill="#537980" transform="matrix(-1 0 0 -1 214.377 132.814)" data-original="#537980" style="" class=""/><path d="m101.188 109.5h12v8.122h-12z" fill="#385b60" transform="matrix(-1 0 0 -1 214.377 227.122)" data-original="#385b60" style=""/><path d="m48.623 60.625v-47.349h-24v47.349a28.75 28.75 0 1 0 24 0z" fill="#eaeaf0" data-original="#eaeaf0" style="" class=""/><path d="m59.37 86.75a22.75 22.75 0 0 1 -45.5 0 22.512 22.512 0 0 1 .7-5.58h44.1a22.512 22.512 0 0 1 .7 5.58z" fill="#ed5e5e" data-original="#9adb07" style="" class=""/><rect fill="#d8d8d8" height="6" rx="3" width="33" x="20.123" y="13.276" data-original="#d8d8d8" style=""/><path d="m6.5 115.5h115v6h-115z" fill="#537980" data-original="#537980" style="" class=""/><path d="m75.126 6.5v70.615a9 9 0 0 0 9 9 9 9 0 0 0 9-9v-70.615z" fill="#eaeaf0" data-original="#eaeaf0" style="" class=""/><rect fill="#d8d8d8" height="27" rx="3" transform="matrix(0 1 -1 0 93.626 -74.626)" width="6" x="81.126" y="-4" data-original="#d8d8d8" style=""/><path d="m91.876 2.942h6v48.5h-6z" fill="#385b60" transform="matrix(0 1 -1 0 122.068 -67.684)" data-original="#385b60" style=""/><g fill="#94c600"><circle cx="32.137" cy="94.542" r="3" fill="#d49595" data-original="#94c600" style="" class=""/><circle cx="48.624" cy="88.667" r="3" fill="#d49595" data-original="#94c600" style="" class=""/><circle cx="35.137" cy="67.388" r="3" fill="#d49595" data-original="#94c600" style="" class=""/></g></g><g fill="#051720"><path d="m110.19 62.254a1.751 1.751 0 0 0 -1.75 1.746v4.5a1.75 1.75 0 0 0 3.5 0v-4.5a1.751 1.751 0 0 0 -1.75-1.746z" fill="#051720" data-original="#051720" style="" class=""/><path d="m30.624 27.75a1.75 1.75 0 0 0 -1.75 1.75v6.583a1.75 1.75 0 0 0 3.5 0v-6.583a1.751 1.751 0 0 0 -1.75-1.75z" fill="#051720" data-original="#051720" style="" class=""/><path d="m12.875 80.737a24.274 24.274 0 0 0 -.755 6.013 24.5 24.5 0 1 0 48.245-6.013 1.749 1.749 0 0 0 -1.7-1.317h-44.095a1.748 1.748 0 0 0 -1.695 1.317zm3.1 2.183h41.291a21 21 0 1 1 -41.291 0z" fill="#051720" data-original="#051720" style="" class=""/><path d="m121.5 113.75h-6.562v-4.25a1.75 1.75 0 0 0 -1.75-1.75h-1.248v-32.417a1.75 1.75 0 0 0 -3.5 0v32.417h-2.5v-75.808h2.5v25.25a1.75 1.75 0 1 0 3.5 0v-25.25h7.186a1.75 1.75 0 0 0 1.75-1.75v-6a1.751 1.751 0 0 0 -1.75-1.75h-7.186v-7.252a1.751 1.751 0 0 0 -1.75-1.75h-6a1.751 1.751 0 0 0 -1.75 1.75v7.252h-7.56v-8.218a4.74 4.74 0 0 0 -.254-9.474h-21a4.74 4.74 0 0 0 -.246 9.475v8.217h-2.754a1.751 1.751 0 0 0 -1.75 1.75v6a1.75 1.75 0 0 0 1.75 1.75h2.754v45.178a10.744 10.744 0 0 0 18.344 7.6 10.641 10.641 0 0 0 3.156-7.6v-45.178h7.56v75.808h-1.252a1.751 1.751 0 0 0 -1.75 1.75v4.25h-14.605a1.75 1.75 0 0 0 0 3.5h34.917v2.5h-111.5v-2.5h66.88a1.75 1.75 0 0 0 0-3.5h-24.347a30.493 30.493 0 0 0 11.465-43.542 1.75 1.75 0 1 0 -2.936 1.9 27 27 0 1 1 -33.961-9.888 1.75 1.75 0 0 0 1.019-1.59v-39.605h20.5v3.975h-4.246a1.75 1.75 0 0 0 0 3.5h4.246v3.25h-4.246a1.75 1.75 0 1 0 0 3.5h4.246v3.25h-4.246a1.75 1.75 0 0 0 0 3.5h4.246v3.25h-4.246a1.75 1.75 0 0 0 0 3.5h4.246v3.25h-4.246a1.75 1.75 0 0 0 0 3.5h4.246v5.13a1.751 1.751 0 0 0 1.02 1.59 26.836 26.836 0 0 1 6.59 4.291 1.75 1.75 0 1 0 2.32-2.621 30.291 30.291 0 0 0 -6.43-4.359v-5.748c0-.012 0-.022 0-.034s0-.022 0-.034v-6.682c0-.012 0-.022 0-.034s0-.022 0-.034v-6.682c0-.012 0-.022 0-.034s0-.022 0-.034v-6.682c0-.012 0-.022 0-.034s0-.022 0-.034v-6.682c0-.012 0-.022 0-.034s0-.022 0-.034v-5.715a4.74 4.74 0 0 0 -.246-9.475h-27a4.741 4.741 0 0 0 -.254 9.475v38.531a30.485 30.485 0 0 0 -.412 54.219h-15.958a1.751 1.751 0 0 0 -1.75 1.75v6a1.751 1.751 0 0 0 1.75 1.75h115a1.751 1.751 0 0 0 1.75-1.75v-6a1.751 1.751 0 0 0 -1.75-1.75zm-15.56-96.81h2.5v5.5h-2.5zm-33.564-7.44a1.252 1.252 0 0 1 1.25-1.25h21a1.25 1.25 0 0 1 0 2.5h-21a1.252 1.252 0 0 1 -1.25-1.25zm4.5 4.75h14.5v8.192h-14.496zm-4.5 11.692h45v2.5h-7.162-.024-.024-5.952-.024-.024-11.012-.024-.024-17.952-.024-.024-2.73zm19 9.25h-4.25a1.75 1.75 0 0 0 0 3.5h4.254v3.25h-4.254a1.75 1.75 0 0 0 0 3.5h4.254v3.25h-4.254a1.75 1.75 0 0 0 0 3.5h4.254v3.25h-4.254a1.75 1.75 0 0 0 0 3.5h4.254v3.25h-4.254a1.75 1.75 0 0 0 0 3.5h4.254v11.428a7.264 7.264 0 0 1 -7.25 7.25 7.258 7.258 0 0 1 -7.25-7.25v-45.178h14.5zm11.558 78.558v-2.5h8.5v2.5zm-81.06-97.475a1.251 1.251 0 0 1 1.25-1.25h27a1.25 1.25 0 1 1 0 2.5h-27a1.25 1.25 0 0 1 -1.25-1.25z" fill="#051720" data-original="#051720" style="" class=""/><path d="m32.137 99.292a4.75 4.75 0 1 0 -4.75-4.75 4.756 4.756 0 0 0 4.75 4.75zm0-6a1.25 1.25 0 1 1 -1.25 1.25 1.251 1.251 0 0 1 1.25-1.25z" fill="#051720" data-original="#051720" style="" class=""/><path d="m48.624 93.417a4.75 4.75 0 1 0 -4.75-4.75 4.756 4.756 0 0 0 4.75 4.75zm0-6a1.25 1.25 0 1 1 -1.25 1.25 1.251 1.251 0 0 1 1.25-1.25z" fill="#051720" data-original="#051720" style="" class=""/><path d="m30.387 67.388a4.75 4.75 0 1 0 4.75-4.75 4.756 4.756 0 0 0 -4.75 4.75zm4.75-1.25a1.25 1.25 0 1 1 -1.25 1.25 1.251 1.251 0 0 1 1.25-1.25z" fill="#051720" data-original="#051720" style="" class=""/></g></g></g></svg>
