<svg id="Layer_1" data-name="Layer 1" xmlns="http://www.w3.org/2000/svg" xmlns:xlink="http://www.w3.org/1999/xlink" viewBox="0 0 1146.67 1094.39"><defs><style>.cls-1,.cls-5{fill:none;}.cls-2{fill:#e09451;}.cls-3{fill:#d0e9eb;}.cls-4,.cls-7{fill:#fff;}.cls-4,.cls-5{stroke:#000;stroke-miterlimit:10;stroke-width:2px;}.cls-6{clip-path:url(#clip-path);}.cls-7{opacity:0.1;}.cls-8{fill:#d4a18a;}.cls-9{fill:#107c71;}.cls-10{fill:#16a596;}</style><clipPath id="clip-path" transform="translate(-6687.19 -6542.27)"><path class="cls-1" d="M7308,6941.31l74.7,129.38,105.41,182.58,66.76,115.6c0,.05.06.05.06.05l11.32,19.67,2.83,4.91c12.07,20.91-3,47.05-27.18,47.05H6903.64a31.38,31.38,0,0,1-27.18-47.05l2.83-4.91,10.76-18.7.05-.05,67.69-117.19L7063.86,7069l73.69-127.64,44.6-77.27a31.37,31.37,0,0,0,4.2-15.79q-.12-36.93-.25-73.85a31.38,31.38,0,0,1,31.51-31.48l15,.06a31.39,31.39,0,0,1,31.25,31.15q.27,37.54.55,75.1a31.38,31.38,0,0,0,3.49,14.14Z"/></clipPath></defs><title>logo averx final-01</title><polygon class="cls-2" points="1021.94 1094.39 851.46 1094.39 802.32 1009.23 793.91 994.68 277.35 994.68 266.95 1012.66 219.76 1094.39 49.33 1094.39 59.73 1076.36 106.88 994.68 149.51 920.84 921.76 920.84 964.39 994.68 1008.77 1071.54 1021.94 1094.39"/><circle class="cls-3" cx="540.5" cy="150.25" r="30.72"/><circle class="cls-3" cx="612.75" cy="57.2" r="57.2"/><circle class="cls-4" cx="595.57" cy="547.46" r="17.16"/><circle class="cls-5" cx="499.51" cy="412.86" r="19.3"/><path class="cls-2" d="M7542,7441.22h-638.3a31.37,31.37,0,0,1-27.17-47.05l2.82-4.91,10.76-18.7.06-.05,67.69-117.18,106.06-183.7L7137.57,6942l44.62-77.26a31.53,31.53,0,0,0,4.19-15.8q-.1-36.93-.24-73.84a31.38,31.38,0,0,1,31.5-31.49l15,.07a31.38,31.38,0,0,1,31.24,31.14q.09,12.39.18,24.78h-26.19v6.24h26.24q.14,17.18.25,34.34h-21.59v7h21.64c0,.91,0,1.81,0,2.71a31.55,31.55,0,0,0,3.49,14.15l8.82,17.1h-23.19v7h26.81l27.74,53.81,74.71,129.39L7488.17,7254l66.76,115.59c0,.05.06.05.06.05l11.32,19.67,2.83,4.91A31.37,31.37,0,0,1,7542,7441.22Z" transform="translate(-6687.19 -6542.27)"/><g class="cls-6"><rect class="cls-7" x="535.6" y="46.72" width="611.07" height="852.59"/></g><path class="cls-3" d="M7041.45,7160.68a21.63,21.63,0,0,0,1.55-3.52c3.71-10.9,8.8-15.15,13.1-16.9,12.09-4.91,23.35,7.82,35.35,2,7.35-3.59,6.49-10,12.43-14.48,6.64-5,20.23-6.45,51,10.51a20.18,20.18,0,0,0,7.86,2.46,190.6,190.6,0,0,0,41.21-.46c23.26-2.8,28.81-12.56,44.37-10.24,18.05,2.7,20.81,15.31,40.68,20.41,12.8,3.3,24.75,1.43,33.7-1.2a20.27,20.27,0,0,0,4.48-1.93,20.74,20.74,0,0,0,2-1.33c1.2-.92,13-9.13,26.68-11.95,3.93-.81,24.48-4.57,39.73,7.35a30.92,30.92,0,0,1,7.15,7.46l127.31,231.43a19.88,19.88,0,0,1-17.55,29.46l-575.73-3.84a19.88,19.88,0,0,1-17.17-29.66Q6980.55,7268.46,7041.45,7160.68Z" transform="translate(-6687.19 -6542.27)"/><circle class="cls-3" cx="612.73" cy="547.46" r="15.36"/><rect class="cls-8" x="472.33" y="194.94" width="126.62" height="27.11" rx="13.55"/><path class="cls-9" d="M6893.1,7348.11l-.05.05q-12.45,9.45-24.23,18.7c-22.91,17.89-44,35.26-63.13,52q-12.84,11.15-24.44,21.88c-29.57,27.36-53,52.27-69,73.84-22,29.57-30.29,52.78-21.83,67.13,7.68,13,28.38,17.52,59.44,14.55,47.8-4.61,120.16-27.06,207.21-63.69q20.22-8.46,41.41-18c47.14-21.11,97.82-45.91,150.65-73.84q20.13-10.6,40.63-21.88,18.6-10.14,37.56-20.9,26.67-15.08,53.8-31.06c.11,0,.16-.1.26-.15q44.73-26.37,86.7-53c43.71-27.62,84.91-55.19,123-82.19,178-125.75,287.92-237.71,264-278.29S7581,6954.58,7385.74,7049c99.34-30.76,246.85-71.92,260.19-43.4,35.52,76-893.29,621.4-938.19,558.67C6696.75,7548.88,6735.65,7492.89,6893.1,7348.11Z" transform="translate(-6687.19 -6542.27)"/><path class="cls-10" d="M7557.91,7347.14a0,0,0,0,0,.05,0q13.06,10,25.36,19.67c22.75,18,43.66,35.36,62.46,52,8.46,7.43,16.45,14.76,24,21.88,29.31,27.47,52.11,52.47,67.22,73.84,19.22,27.16,26,48.53,18.09,62-7.43,12.56-26.95,17.17-56.21,14.86-47-3.84-119.24-25.82-206.45-62.31q-16.61-6.92-33.87-14.55c-47.5-21-98.79-45.71-152.44-73.84q-20.3-10.6-41-21.88-18.77-10.21-37.82-20.9-26.82-15.08-54.16-31.06c-3-1.74-5.95-3.48-9-5.27q-41.28-24.37-80.19-48.84-38.2-24.06-73.74-47.86-25.52-17.13-49.5-34c-181.7-127.59-294.58-241.75-270.34-282.8s177.75,2.31,376.41,99.1c-195.44-67.48-288.43-85.61-298.92-64.27-36.33,73.9,902.15,649.23,954.38,579.79C7738.14,7541.71,7672.64,7461.71,7557.91,7347.14Z" transform="translate(-6687.19 -6542.27)"/><circle class="cls-3" cx="499.51" cy="432.16" r="15.36"/></svg>